<svg width="200" height="200" viewBox="0 0 200 200" fill="none" xmlns="http://www.w3.org/2000/svg">

  <!-- Calculator body outline -->
  <rect x="44" y="14" width="112" height="172" rx="14"
    fill="none" stroke="#64748B" stroke-width="2" stroke-opacity="0.35"/>

  <!-- Screen — narrow portrait, no background -->
  <rect x="50" y="22" width="100" height="44" rx="8" fill="#1E3A8A"/>
  <rect x="51" y="23" width="98" height="1.5" rx="0.75" fill="white" opacity="0.15"/>

  <!-- Cursor -->
  <rect x="142" y="43" width="6" height="2.5" rx="1.25" fill="#93C5FD"/>

  <!-- Row 1 — utility (light blue) -->
  <rect x="50"  y="76" width="28" height="28" rx="6" fill="#93C5FD"/>
  <rect x="86"  y="76" width="28" height="28" rx="6" fill="#93C5FD"/>
  <rect x="122" y="76" width="28" height="28" rx="6" fill="#93C5FD"/>

  <!-- Row 2 — numbers (medium blue) -->
  <rect x="50"  y="112" width="28" height="28" rx="6" fill="#3B82F6"/>
  <rect x="86"  y="112" width="28" height="28" rx="6" fill="#3B82F6"/>
  <rect x="122" y="112" width="28" height="28" rx="6" fill="#3B82F6"/>

  <!-- Row 3 — numbers + = -->
  <rect x="50"  y="148" width="28" height="28" rx="6" fill="#3B82F6"/>
  <rect x="86"  y="148" width="28" height="28" rx="6" fill="#3B82F6"/>
  <rect x="122" y="148" width="28" height="28" rx="6" fill="#F97316"/>
</svg>
